<?xml version="1.0" standalone="no"?>
<!DOCTYPE svg PUBLIC "-//W3C//DTD SVG 20010904//EN"
 "http://www.w3.org/TR/2001/REC-SVG-20010904/DTD/svg10.dtd">
<svg version="1.0" xmlns="http://www.w3.org/2000/svg"
 width="700.000000pt" height="700.000000pt" viewBox="0 0 700.000000 700.000000"
 preserveAspectRatio="xMidYMid meet">
<metadata>
Created by potrace 1.14, written by Peter Selinger 2001-2017
</metadata>
<g transform="translate(0.000000,700.000000) scale(0.100000,-0.100000)"
fill="#000000" stroke="none">
<path d="M3278 6996 c-1 -2 -42 -6 -89 -10 -47 -4 -95 -8 -105 -10 -10 -2 -48
-7 -84 -12 -36 -4 -67 -8 -70 -9 -3 -1 -25 -5 -50 -9 -25 -4 -101 -21 -170
-38 -69 -16 -135 -31 -147 -34 -40 -8 -264 -84 -367 -126 -131 -52 -350 -159
-449 -220 -43 -26 -81 -48 -84 -48 -9 0 -227 -152 -313 -219 -437 -339 -826
-832 -1035 -1311 -25 -58 -50 -114 -55 -125 -45 -93 -150 -427 -176 -560 -2
-11 -10 -54 -19 -95 -29 -147 -35 -193 -52 -370 -15 -162 -8 -592 12 -711 2
-13 6 -46 9 -74 38 -329 167 -745 339 -1085 61 -122 169 -312 187 -330 3 -3
26 -36 51 -75 169 -257 438 -545 719 -770 92 -74 370 -265 386 -265 4 0 15 -6
23 -14 9 -7 81 -47 161 -88 354 -181 736 -303 1109 -354 25 -3 57 -8 71 -10
163 -25 682 -25 842 1 13 2 46 7 73 10 74 11 87 13 120 19 17 4 46 9 65 12 51
8 213 48 300 74 253 74 522 187 734 309 49 28 91 51 93 51 10 0 268 180 353
247 152 119 324 280 450 422 36 41 70 79 76 85 29 30 185 242 240 326 120 184
241 412 315 597 66 163 147 422 175 558 16 79 54 301 59 350 4 33 9 71 11 85
9 47 11 525 3 605 -15 165 -21 220 -24 225 -2 3 -6 30 -10 60 -3 30 -10 71
-15 90 -5 19 -12 51 -15 70 -13 77 -66 272 -106 390 -350 1041 -1163 1856
-2204 2208 -167 56 -419 119 -555 137 -19 3 -46 7 -60 10 -13 2 -54 7 -90 11
-36 3 -76 8 -90 11 -27 5 -536 14 -542 9z m435 -661 c54 -4 107 -8 116 -10 10
-2 42 -6 72 -10 30 -3 61 -8 69 -10 8 -2 33 -7 55 -10 22 -3 94 -19 160 -36
66 -16 127 -32 135 -34 8 -2 15 -4 15 -4 0 -1 50 -19 110 -40 146 -51 177 -64
330 -142 584 -294 1041 -768 1312 -1361 85 -187 167 -435 197 -598 3 -14 9
-48 15 -75 5 -28 12 -73 15 -100 3 -28 8 -60 10 -72 22 -113 23 -550 1 -664
-3 -12 -7 -45 -10 -73 -3 -28 -10 -69 -15 -91 -5 -22 -12 -55 -15 -73 -38
-219 -143 -516 -263 -742 -62 -118 -59 -113 -137 -235 -418 -650 -1123 -1122
-1871 -1251 -16 -3 -36 -7 -44 -9 -8 -2 -41 -7 -73 -10 -32 -4 -68 -8 -80 -11
-34 -6 -213 -17 -292 -17 -79 -1 -310 11 -340 17 -11 2 -47 7 -80 11 -165 19
-452 92 -612 156 -525 208 -932 514 -1262 949 -415 549 -615 1222 -567 1910
51 728 383 1410 927 1905 170 155 362 290 579 408 211 113 527 228 755 273 22
4 42 8 45 9 6 1 95 15 140 21 19 3 46 7 60 9 14 3 77 8 140 11 63 4 116 7 117
8 4 4 186 -2 286 -9z"/>
<path d="M3070 5125 c-99 -32 -197 -140 -218 -239 -9 -44 -9 -2747 1 -2782 22
-83 92 -168 174 -210 50 -25 69 -29 143 -29 72 0 94 4 140 27 30 14 67 37 81
50 14 12 71 64 125 114 54 51 113 104 129 119 17 15 82 76 145 134 63 58 146
135 185 171 38 35 79 73 90 85 12 11 45 42 75 69 57 52 246 226 311 286 20 19
84 78 141 130 255 234 246 226 282 280 55 84 61 215 13 311 -24 49 -71 103
-163 186 -17 15 -78 71 -135 124 -57 53 -116 107 -130 120 -15 13 -73 67 -129
119 -135 124 -156 144 -210 193 -25 23 -77 71 -115 107 -116 107 -288 266
-321 296 -17 16 -80 75 -140 130 -142 132 -189 171 -236 195 -52 27 -177 34
-238 14z"/>
</g>
</svg>
